  0
SECTION
  2
HEADER
  9
$ACADVER
  1
AC1009
  9
$ANGDIR
  70
0
  9
$CECOLOR
  62
256
  9
$CELTYPE
  6
BYLAYER
  9
$EXTMIN
  10
0.0
  20
0.0
  9
$EXTMAX
  10
0.5473
  20
0.5595
  9
$FILLMODE
  70
1
  9
$MIRRTEXT
  70
0
  0
ENDSEC
  0
SECTION
  2
TABLES
  0
TABLE
  2
LAYER
  70
17
  0
LAYER
  2
Top_Silk
  70
64
  62
2
  6
CONTINUOUS
  0
LAYER
  2
Top
  70
64
  62
5
  6
CONTINUOUS
  0
ENDTAB
  0
ENDSEC
  0
SECTION
  2
ENTITIES
  0
POLYLINE
  8
Top_Silk
  6
CONTINUOUS
  66
1
  70
0
  40
0.0098
  41
0.0098
  0
VERTEX
  8
Top_Silk
  10
0.0473
  20
0.5595
  42
0
  0
VERTEX
  8
Top_Silk
  10
0.5236
  20
0.5595
  42
0
  0
SEQEND
  0
POLYLINE
  8
Top_Silk
  6
CONTINUOUS
  66
1
  70
0
  40
0.0098
  41
0.0098
  0
VERTEX
  8
Top_Silk
  10
0.0492
  20
0.0025
  42
0
  0
VERTEX
  8
Top_Silk
  10
0.5256
  20
0.0025
  42
0
  0
SEQEND
  0
POLYLINE
  8
Top_Silk
  6
CONTINUOUS
  66
1
  70
0
  40
0.0049
  41
0.0049
  0
VERTEX
  8
Top_Silk
  10
0.0467
  20
0.0025
  42
0
  0
VERTEX
  8
Top_Silk
  10
0.0467
  20
0.0021
  42
0
  0
VERTEX
  8
Top_Silk
  10
0.0468
  20
0.0017
  42
0
  0
VERTEX
  8
Top_Silk
  10
0.047
  20
0.0014
  42
0
  0
VERTEX
  8
Top_Silk
  10
0.0472
  20
0.001
  42
0
  0
VERTEX
  8
Top_Silk
  10
0.0474
  20
0.0007
  42
0
  0
VERTEX
  8
Top_Silk
  10
0.0477
  20
0.0005
  42
0
  0
VERTEX
  8
Top_Silk
  10
0.0481
  20
0.0003
  42
0
  0
VERTEX
  8
Top_Silk
  10
0.0484
  20
0.0001
  42
0
  0
VERTEX
  8
Top_Silk
  10
0.0488
  20
0.0
  42
0
  0
VERTEX
  8
Top_Silk
  10
0.0492
  20
0.0
  42
0
  0
VERTEX
  8
Top_Silk
  10
0.0496
  20
0.0
  42
0
  0
VERTEX
  8
Top_Silk
  10
0.05
  20
0.0001
  42
0
  0
VERTEX
  8
Top_Silk
  10
0.0503
  20
0.0003
  42
0
  0
VERTEX
  8
Top_Silk
  10
0.0507
  20
0.0005
  42
0
  0
VERTEX
  8
Top_Silk
  10
0.051
  20
0.0007
  42
0
  0
VERTEX
  8
Top_Silk
  10
0.0512
  20
0.001
  42
0
  0
VERTEX
  8
Top_Silk
  10
0.0514
  20
0.0014
  42
0
  0
VERTEX
  8
Top_Silk
  10
0.0516
  20
0.0017
  42
0
  0
VERTEX
  8
Top_Silk
  10
0.0517
  20
0.0021
  42
0
  0
VERTEX
  8
Top_Silk
  10
0.0517
  20
0.0025
  42
0
  0
SEQEND
  0
POLYLINE
  8
Top_Silk
  6
CONTINUOUS
  66
1
  70
0
  40
0.0049
  41
0.0049
  0
VERTEX
  8
Top_Silk
  10
0.0517
  20
0.0025
  42
0
  0
VERTEX
  8
Top_Silk
  10
0.0517
  20
0.0029
  42
0
  0
VERTEX
  8
Top_Silk
  10
0.0516
  20
0.0033
  42
0
  0
VERTEX
  8
Top_Silk
  10
0.0514
  20
0.0036
  42
0
  0
VERTEX
  8
Top_Silk
  10
0.0512
  20
0.004
  42
0
  0
VERTEX
  8
Top_Silk
  10
0.051
  20
0.0043
  42
0
  0
VERTEX
  8
Top_Silk
  10
0.0507
  20
0.0045
  42
0
  0
VERTEX
  8
Top_Silk
  10
0.0503
  20
0.0047
  42
0
  0
VERTEX
  8
Top_Silk
  10
0.05
  20
0.0049
  42
0
  0
VERTEX
  8
Top_Silk
  10
0.0496
  20
0.005
  42
0
  0
VERTEX
  8
Top_Silk
  10
0.0492
  20
0.005
  42
0
  0
VERTEX
  8
Top_Silk
  10
0.0488
  20
0.005
  42
0
  0
VERTEX
  8
Top_Silk
  10
0.0484
  20
0.0049
  42
0
  0
VERTEX
  8
Top_Silk
  10
0.0481
  20
0.0047
  42
0
  0
VERTEX
  8
Top_Silk
  10
0.0477
  20
0.0045
  42
0
  0
VERTEX
  8
Top_Silk
  10
0.0474
  20
0.0043
  42
0
  0
VERTEX
  8
Top_Silk
  10
0.0472
  20
0.004
  42
0
  0
VERTEX
  8
Top_Silk
  10
0.047
  20
0.0036
  42
0
  0
VERTEX
  8
Top_Silk
  10
0.0468
  20
0.0033
  42
0
  0
VERTEX
  8
Top_Silk
  10
0.0467
  20
0.0029
  42
0
  0
VERTEX
  8
Top_Silk
  10
0.0467
  20
0.0025
  42
0
  0
SEQEND
  0
POLYLINE
  8
Top_Silk
  6
CONTINUOUS
  66
1
  70
0
  40
0.0049
  41
0.0049
  0
VERTEX
  8
Top_Silk
  10
0.5231
  20
0.0025
  42
0
  0
VERTEX
  8
Top_Silk
  10
0.5231
  20
0.0021
  42
0
  0
VERTEX
  8
Top_Silk
  10
0.5232
  20
0.0017
  42
0
  0
VERTEX
  8
Top_Silk
  10
0.5234
  20
0.0014
  42
0
  0
VERTEX
  8
Top_Silk
  10
0.5236
  20
0.001
  42
0
  0
VERTEX
  8
Top_Silk
  10
0.5238
  20
0.0007
  42
0
  0
VERTEX
  8
Top_Silk
  10
0.5241
  20
0.0005
  42
0
  0
VERTEX
  8
Top_Silk
  10
0.5245
  20
0.0003
  42
0
  0
VERTEX
  8
Top_Silk
  10
0.5248
  20
0.0001
  42
0
  0
VERTEX
  8
Top_Silk
  10
0.5252
  20
0.0
  42
0
  0
VERTEX
  8
Top_Silk
  10
0.5256
  20
0.0
  42
0
  0
VERTEX
  8
Top_Silk
  10
0.526
  20
0.0
  42
0
  0
VERTEX
  8
Top_Silk
  10
0.5264
  20
0.0001
  42
0
  0
VERTEX
  8
Top_Silk
  10
0.5267
  20
0.0003
  42
0
  0
VERTEX
  8
Top_Silk
  10
0.5271
  20
0.0005
  42
0
  0
VERTEX
  8
Top_Silk
  10
0.5274
  20
0.0007
  42
0
  0
VERTEX
  8
Top_Silk
  10
0.5276
  20
0.001
  42
0
  0
VERTEX
  8
Top_Silk
  10
0.5278
  20
0.0014
  42
0
  0
VERTEX
  8
Top_Silk
  10
0.528
  20
0.0017
  42
0
  0
VERTEX
  8
Top_Silk
  10
0.5281
  20
0.0021
  42
0
  0
VERTEX
  8
Top_Silk
  10
0.5281
  20
0.0025
  42
0
  0
SEQEND
  0
POLYLINE
  8
Top_Silk
  6
CONTINUOUS
  66
1
  70
0
  40
0.0049
  41
0.0049
  0
VERTEX
  8
Top_Silk
  10
0.5281
  20
0.0025
  42
0
  0
VERTEX
  8
Top_Silk
  10
0.5281
  20
0.0029
  42
0
  0
VERTEX
  8
Top_Silk
  10
0.528
  20
0.0033
  42
0
  0
VERTEX
  8
Top_Silk
  10
0.5278
  20
0.0036
  42
0
  0
VERTEX
  8
Top_Silk
  10
0.5276
  20
0.004
  42
0
  0
VERTEX
  8
Top_Silk
  10
0.5274
  20
0.0043
  42
0
  0
VERTEX
  8
Top_Silk
  10
0.5271
  20
0.0045
  42
0
  0
VERTEX
  8
Top_Silk
  10
0.5267
  20
0.0047
  42
0
  0
VERTEX
  8
Top_Silk
  10
0.5264
  20
0.0049
  42
0
  0
VERTEX
  8
Top_Silk
  10
0.526
  20
0.005
  42
0
  0
VERTEX
  8
Top_Silk
  10
0.5256
  20
0.005
  42
0
  0
VERTEX
  8
Top_Silk
  10
0.5252
  20
0.005
  42
0
  0
VERTEX
  8
Top_Silk
  10
0.5248
  20
0.0049
  42
0
  0
VERTEX
  8
Top_Silk
  10
0.5245
  20
0.0047
  42
0
  0
VERTEX
  8
Top_Silk
  10
0.5241
  20
0.0045
  42
0
  0
VERTEX
  8
Top_Silk
  10
0.5238
  20
0.0043
  42
0
  0
VERTEX
  8
Top_Silk
  10
0.5236
  20
0.004
  42
0
  0
VERTEX
  8
Top_Silk
  10
0.5234
  20
0.0036
  42
0
  0
VERTEX
  8
Top_Silk
  10
0.5232
  20
0.0033
  42
0
  0
VERTEX
  8
Top_Silk
  10
0.5231
  20
0.0029
  42
0
  0
VERTEX
  8
Top_Silk
  10
0.5231
  20
0.0025
  42
0
  0
SEQEND
  0
SOLID
  8
Top
  10
0.0
  20
0.3549
  11
0.0984
  21
0.3549
  12
0.0
  22
0.2997
  13
0.0984
  23
0.2997
  0
SOLID
  8
Top
  10
0.0
  20
0.2682
  11
0.0984
  21
0.2682
  12
0.0
  22
0.2131
  13
0.0984
  23
0.2131
  0
SOLID
  8
Top
  10
0.0
  20
0.1777
  11
0.0984
  21
0.1777
  12
0.0
  22
0.1226
  13
0.0984
  23
0.1226
  0
SOLID
  8
Top
  10
0.0
  20
0.0871
  11
0.0984
  21
0.0871
  12
0.0
  22
0.032
  13
0.0984
  23
0.032
  0
SOLID
  8
Top
  10
0.4488
  20
0.2682
  11
0.5473
  21
0.2682
  12
0.4488
  22
0.2131
  13
0.5473
  23
0.2131
  0
SOLID
  8
Top
  10
0.4488
  20
0.0871
  11
0.5473
  21
0.0871
  12
0.4488
  22
0.032
  13
0.5473
  23
0.032
  0
SOLID
  8
Top
  10
0.4488
  20
0.1777
  11
0.5473
  21
0.1777
  12
0.4488
  22
0.1226
  13
0.5473
  23
0.1226
  0
SOLID
  8
Top
  10
0.4488
  20
0.3549
  11
0.5473
  21
0.3549
  12
0.4488
  22
0.2997
  13
0.5473
  23
0.2997
  0
SOLID
  8
Top
  10
0.0
  20
0.4415
  11
0.0984
  21
0.4415
  12
0.0
  22
0.3864
  13
0.0984
  23
0.3864
  0
SOLID
  8
Top
  10
0.4488
  20
0.4415
  11
0.5473
  21
0.4415
  12
0.4488
  22
0.3864
  13
0.5473
  23
0.3864
  0
SOLID
  8
Top
  10
0.0
  20
0.5281
  11
0.0984
  21
0.5281
  12
0.0
  22
0.473
  13
0.0984
  23
0.473
  0
SOLID
  8
Top
  10
0.4488
  20
0.5281
  11
0.5473
  21
0.5281
  12
0.4488
  22
0.473
  13
0.5473
  23
0.473
  0
ENDSEC
  0
EOF
